# xmcd
#
# Track frame offsets: 
#        150
#        12255
#        22185
#        47179
#        61396
#        79179
#        97196
#        107171
#        119905
#        131566
#        141831
#        158005
#
# Disc length: 2268 seconds
#
# Revision: 0
# Processed by: cddbd v1.5.2PL0 Copyright (c) Steve Scherf et al.
# Submitted via: ExactAudioCopy v1.0b6
#
DISCID=ad08da0c
DTITLE=Mama Corn - Mama Corn
DYEAR=2011
DGENRE=Bluegrass
TTITLE0=Grieving Old Man
TTITLE1=Seeing You Again
TTITLE2=Peggy-O
TTITLE3=Eli Renfro
TTITLE4=Goin' Up The Mountain
TTITLE5=Worried Man Blues
TTITLE6=Salty Dog Blues
TTITLE7=Bald Knob Arkansas
TTITLE8=Stoney Lonesome
TTITLE9=Fallen Leaves
TTITLE10=Cold Rain and Snow
TTITLE11=Wait A Little Longer
EXTD=
EXTT0=
EXTT1=
EXTT2=
EXTT3=
EXTT4=
EXTT5=
EXTT6=
EXTT7=
EXTT8=
EXTT9=
EXTT10=
EXTT11=
PLAYORDER=
